<?xml version="1.0" encoding="UTF-8"?>
<svg width="400" height="400" fill="none" version="1.1" viewBox="0 0 400 400" xmlns="http://www.w3.org/2000/svg">
 <defs>
  <filter id="filter82" x="-.063" y="-.072" width="1.1" height="1.1" color-interpolation-filters="sRGB">
   <feGaussianBlur in="SourceAlpha" result="blur1" stdDeviation="7.48347"/>
   <feComposite in="blur1" in2="SourceGraphic" operator="out" result="composite1"/>
   <feColorMatrix result="colormatrix1" values="1 0 0 0 0 0 1 0 0 0 0 0 1 0 0 0 0 0 100 -1 "/>
   <feGaussianBlur result="blur2" stdDeviation="0.5"/>
   <feComposite in="blur2" in2="blur2" result="composite2"/>
   <feColorMatrix result="colormatrix2" values="1 0 0 0 0 0 1 0 0 0 0 0 1 0 0 0 0 0 50 -5 "/>
   <feGaussianBlur result="blur3" stdDeviation="1"/>
   <feColorMatrix result="colormatrix3" values="1 0 0 0 0 0 1 0 0 0 0 0 1 0 0 0 0 0 5 -1 "/>
   <feFlood flood-color="rgb(255,255,255)" flood-opacity=".99" result="flood"/>
   <feComposite in="flood" in2="colormatrix3" operator="in" result="composite3"/>
   <feComposite in="SourceGraphic" in2="colormatrix3" operator="out" result="composite4"/>
   <feComposite in="composite4" in2="composite3" k2="1" k3="1" operator="arithmetic" result="composite5"/>
  </filter>
 </defs>
 <g transform="translate(-7.5 -9)" filter="url(#filter82)">
  <path d="m116 357c-8.7 0-16-3.3-21-9.8-5.4-6.4-13-24-22-51-9.3-28-17-54-24-80-2.4-7.2-4.8-13-7.1-18-3.2-6.1-4.8-11-4.8-14 0-3.2 1.9-6 5.6-8.5 3.8-2.6 8-3.9 13-3.9 5.6 0 10 2.8 15 8.3 4.2 5.4 8.9 19 14 40 11 46 22 81 34 104z" fill="#00b846" stroke-width="1.6" style="paint-order:stroke fill markers" aria-label="W"/>
  <path d="m304 295q12-46 23-112 11-67 11-93 0-14 2.1-19 2.3-5 9.2-8.6 7.1-3.6 15-3.6 5.4 0 9.2 7.7 3.8 7.7 3.8 18 0 8.2-6.1 29-12 47-24 113-12 65-12 75 0 20 0.57 26 0.77 10-6.5 16-7.1 5.7-19 5.7-6.9 0-9.4-1.9-2.3-1.7-10-10-7.5-8.4-9.4-16-1.5-7.3-12-19-55-70-99-154-12 44-23 123l-4.8 32q-0.77 4.8-0.77 19 0.19 14-1.5 19-1.5 5-7.7 11-5.9 6.5-11 6.5-13 0-15-11-2.3-11-2.3-17 0-14 8.4-46 8.4-31 21-97 12-65 12-83l-0.19-11q0.19-5.6 2.1-9.8 2.1-4.4 7.7-7.5 5.7-3.1 11-3.1 5.2 0 9.6 2.3 4.4 2.1 6.3 6.7 1.9 4.4 4.6 17 7.7 37 47 99 40 62 69 95z" fill="#0621eb" stroke-width="2" style="paint-order:stroke fill markers" aria-label="N"/>
 </g>
</svg>
