<?xml version="1.0" encoding="UTF-8"?>
<svg width="410" height="404" fill="none" version="1.1" viewBox="0 0 410 404" xmlns="http://www.w3.org/2000/svg" xmlns:cc="http://creativecommons.org/ns#" xmlns:dc="http://purl.org/dc/elements/1.1/" xmlns:rdf="http://www.w3.org/1999/02/22-rdf-syntax-ns#">
 <g>
  <path d="m116.18 357.48c-8.6801 0-15.701-3.2529-21.062-9.7587-5.3613-6.4245-12.765-23.543-22.211-51.355-9.3184-27.812-17.233-54.405-23.743-79.778-2.4253-7.1564-4.7868-13.012-7.0845-17.566-3.1912-6.0992-4.7868-10.653-4.7868-13.662 0-3.1716 1.8509-6.0179 5.5527-8.5389 3.8295-2.6023 8.0419-3.9035 12.637-3.9035 5.6166 0 10.467 2.765 14.552 8.2949 4.2124 5.4486 8.8716 18.745 13.978 39.889 10.978 45.947 22.211 80.672 33.699 104.17z" fill="#00b846" stroke-width="1.6302" aria-label="W"/>
  <path d="m303.9 295.22q11.68-45.571 22.785-112.01 11.297-66.633 11.297-93.056 0-13.978 2.1062-18.956 2.2977-4.9783 9.1907-8.6163 7.0845-3.638 15.318-3.638 5.3613 0 9.1907 7.6589 3.8295 7.6589 3.8295 18.19 0 8.2334-6.1272 29.104-12.063 47.485-23.743 112.78-11.68 65.101-11.68 75.249 0 20.488 0.57442 25.849 0.7659 9.9566-6.5101 15.701-7.0845 5.7442-18.764 5.7442-6.893 0-9.3822-1.9147-2.2977-1.7233-9.9566-10.148-7.4675-8.4248-9.3822-16.275-1.5318-7.276-11.68-19.147-55.144-70.462-99.183-153.94-12.446 44.23-23.168 122.73l-4.7868 31.976q-0.76589 4.7868-0.76589 19.339 0.19147 14.361-1.5318 19.339-1.5318 4.9783-7.659 11.297-5.9357 6.5101-11.488 6.5101-12.829 0-15.126-11.105-2.2977-10.914-2.2977-16.85 0-13.978 8.4248-45.571 8.4248-31.402 20.679-96.694 12.446-65.293 12.446-82.908l-0.19147-10.531q0.19147-5.5527 2.1062-9.7652 2.1062-4.4039 7.659-7.4675 5.7442-3.0636 11.297-3.0636 5.1698 0 9.5737 2.2977 4.4039 2.1062 6.3186 6.7016 1.9147 4.4039 4.5954 16.658 7.6589 37.146 47.294 99.375 39.827 62.037 68.739 95.162z" fill="#0621eb" stroke-width="2.0424" aria-label="N"/>
 </g>
</svg>
